<svg width="960" height="240" viewBox="0 0 960 240" fill="none" xmlns="http://www.w3.org/2000/svg">
  <rect width="960" height="240" rx="48" fill="#020617"/>
  <g transform="translate(48 40)">
    <rect width="160" height="160" rx="44" fill="#020617"/>
    <rect x="1" y="1" width="158" height="158" rx="43" stroke="#67E8F9" stroke-opacity="0.22" stroke-width="2"/>
    <circle cx="54" cy="40" r="46" fill="#22D3EE" fill-opacity="0.2"/>
    <circle cx="112" cy="58" r="44" fill="#14B8A6" fill-opacity="0.16"/>
    <path d="M40 58L80 34L120 58L80 82L40 58Z" fill="#22D3EE" fill-opacity="0.18" stroke="#E0F2FE" stroke-width="7" stroke-linejoin="round"/>
    <path d="M40 82L80 106L120 82" stroke="#67E8F9" stroke-width="8" stroke-linecap="round" stroke-linejoin="round"/>
    <path d="M40 106L80 130L120 106" stroke="#2DD4BF" stroke-width="8" stroke-linecap="round" stroke-linejoin="round"/>
    <path d="M67 58C70 55 77 53 83 55C89 56 92 60 90 64C88 67 84 68 78 68C72 68 67 69 65 72C64 76 68 79 75 80C81 81 87 80 91 77" stroke="#F8FAFC" stroke-width="7" stroke-linecap="round"/>
  </g>
  <text x="248" y="102" fill="#67E8F9" font-family="Inter, ui-sans-serif, system-ui, -apple-system, BlinkMacSystemFont, 'Segoe UI', sans-serif" font-size="46" font-weight="800" letter-spacing="9">STUDYSTACK</text>
  <text x="250" y="154" fill="#CBD5E1" font-family="Inter, ui-sans-serif, system-ui, -apple-system, BlinkMacSystemFont, 'Segoe UI', sans-serif" font-size="28" font-weight="500">Study smarter</text>
</svg>
